<svg width="34" height="66" viewBox="0 0 34 66" fill="none" xmlns="http://www.w3.org/2000/svg">
<path d="M14.3817 44.0152C14.5434 40.626 15.5135 37.5242 14.9266 34.0512L13.8728 34.5961C11.1902 35.9434 8.65725 35.4464 6.22614 33.9434C5.93825 33.7308 5.68566 33.4742 5.47765 33.183C4.0585 31.4764 2.63337 29.7339 1.2262 27.9974C0.90132 27.5397 0.599549 27.0661 0.322021 26.5783L5.31597 25.71C5.87552 25.6546 6.43003 25.5565 6.97464 25.4166C9.87879 24.4346 12.1901 25.4166 14.2081 27.4884L15.8308 29.171C16.7769 24.4765 17.1122 19.8777 18.8248 15.5125C17.6691 16.1952 16.4955 16.8419 15.3697 17.5664C14.7981 17.9581 14.1242 18.1736 13.4314 18.1864C12.7386 18.1991 12.0573 18.0086 11.4716 17.6382C10.4596 17.0814 10.1003 16.5784 10.4776 15.5365C10.8317 14.6905 11.3301 13.9124 11.9506 13.2371C12.4601 12.7729 13.0229 12.3708 13.6272 12.0395C13.0285 11.812 12.6033 11.6503 12.1722 11.4407C10.6572 10.7701 10.274 9.7102 11.0524 8.27908C11.6812 7.11742 12.4716 6.26713 14.0105 6.53659C15.0695 6.66974 16.1349 6.7457 17.2021 6.76413C17.0929 5.4738 17.055 4.17844 17.0883 2.88394C17.2679 0.877974 18.9805 -0.211833 20.6811 0.620492C21.9266 1.21929 22.9864 2.15341 23.0762 3.72225C23.1301 4.46476 23.184 5.20726 23.2559 6.20126C23.7409 5.72821 24.0403 5.42882 24.3696 5.12942C25.7648 3.86596 27.4894 3.70429 28.5612 4.73421C29.9624 6.05755 29.9564 7.45274 28.8666 9.30302C28.5118 9.75692 28.1104 10.1724 27.669 10.5425L28.9145 10.7641C29.6388 10.838 30.3191 11.1465 30.852 11.6426C31.3849 12.1388 31.7411 12.7954 31.8666 13.5126C32.2139 15.3628 31.3875 16.764 29.5253 17.1412C28.1941 17.3465 26.8528 17.4804 25.5073 17.5424C25.3816 18.6322 25.3277 19.9017 25.0702 21.1352C24.7708 22.5843 23.8726 23.3867 22.711 23.4166C22.0518 23.4185 21.4075 23.2203 20.8633 22.8482C20.3191 22.4762 19.9006 21.9478 19.6631 21.3328C19.5046 20.7211 19.3045 20.1209 19.0643 19.5364C17.8009 22.6382 17.7709 25.9735 16.9685 29.5243C17.6871 29.0812 18.1541 28.8178 18.5434 28.4824C20.1483 27.1798 21.9996 26.2145 23.9864 25.6441C24.7305 25.3946 25.5181 25.3009 26.2999 25.3689C27.0818 25.4369 27.8414 25.6651 28.5313 26.0393C30.0821 26.8477 31.5672 27.7759 33.0402 28.7279C33.3875 28.9555 33.5492 29.4645 33.8007 29.8477L32.7228 30.3387C32.2613 30.4896 31.8175 30.6904 31.3995 30.9375C30.2019 31.8477 29.0881 32.8357 27.9025 33.7458C27.4721 34.0978 26.9781 34.3641 26.4475 34.5303C24.1541 35.1291 21.8607 35.7278 19.5613 34.4704C18.6452 33.9734 17.6332 33.656 16.4296 33.159L15.6212 43.8415L25.687 43.3445C25.8008 44.2487 25.9265 45.0271 25.9984 45.8175C26.1361 47.3505 25.9445 48.9073 26.5253 50.4103C26.8427 51.2247 26.178 51.7875 25.2618 51.6079C24.9744 51.548 24.705 51.4342 24.2319 51.2845C24.2319 55.7336 24.2319 60.015 24.2319 64.3802C20.0403 64.2724 16.0105 64.979 11.9686 65.6556C10.0944 65.967 9.57341 65.464 9.38778 63.5479C9.05245 60.506 8.6812 57.4701 8.30396 54.4402C8.22612 53.8414 8.05845 53.2426 7.92672 52.5839C7.50756 52.542 7.20817 52.4941 6.91476 52.4821C6.13632 52.4462 5.85489 51.9971 5.801 51.2845C5.68124 49.6019 5.48364 47.9313 5.35789 46.2487C5.26807 45.0511 5.58543 44.6559 6.80099 44.5661C8.4836 44.4463 10.1722 44.4403 11.8548 44.3445C12.6812 44.2607 13.4955 44.117 14.3817 44.0152ZM9.12431 52.4702C9.25006 53.3384 9.39377 54.1827 9.48958 55.033C9.777 57.512 10.0165 59.991 10.3518 62.4641C10.5107 63.1098 10.7396 63.7362 11.0345 64.3323L23.1241 62.6676C22.8008 58.8952 23.4355 55.2366 22.9685 51.5001L9.12431 52.4702ZM6.90877 50.8774C13.1482 51.2546 19.0523 50.3265 25.1421 49.8774L24.7828 44.7218L6.51955 45.9613L6.90877 50.8774ZM19.1481 10.303C17.9506 8.06351 15.7051 7.82999 13.4237 7.7222C12.7291 7.69226 11.9267 8.5665 11.8728 9.315C11.8129 10.1593 12.4716 10.3928 13.0704 10.5126C14.0464 10.6862 15.0404 10.7461 16.0344 10.818C16.5316 10.802 17.0293 10.812 17.5254 10.8479C17.6633 10.8912 17.7879 10.9688 17.8874 11.0736C17.987 11.1784 18.0581 11.3068 18.0943 11.4467C18.0803 11.5922 18.0317 11.7323 17.9525 11.8553C17.8734 11.9782 17.7659 12.0804 17.6392 12.1533C17.2817 12.2508 16.9138 12.3051 16.5434 12.315C14.8672 12.5909 13.3288 13.4117 12.1662 14.6503C11.9959 14.8553 11.8714 15.0945 11.8012 15.3517C11.731 15.6088 11.7166 15.8781 11.759 16.1413C11.8428 16.4766 12.4895 16.7401 12.9566 16.8898C13.315 17.0076 13.7048 16.984 14.0464 16.8239C15.4656 15.9077 16.8727 15.0215 18.2859 14.1113C18.4941 13.8948 18.6229 13.6141 18.6511 13.3149C18.8188 12.315 18.9685 11.3449 19.1481 10.303ZM23.4894 14.788C25.669 16.3149 27.2319 16.6323 29.16 16.0514C30.3576 15.6922 30.7887 15.2131 30.7767 14.303C30.8084 13.8033 30.6492 13.3102 30.3313 12.9234C30.0134 12.5366 29.5605 12.2849 29.0642 12.2192C27.7772 12.0988 26.479 12.2331 25.2439 12.6144C24.5133 12.8778 24.1062 13.9676 23.4894 14.788ZM20.2439 9.14135L22.0763 8.40483C22.0463 6.94377 22.0763 5.46474 21.9625 3.9977C21.929 3.49406 21.7373 3.01387 21.4147 2.62568C21.0921 2.23748 20.6551 1.96112 20.1661 1.83605C19.0703 1.47677 18.3697 1.93185 18.1422 3.06358C18.0856 3.49223 18.0675 3.9251 18.0883 4.35697C18.1062 6.22521 19.1002 7.64436 20.2439 9.14135ZM23.9445 21.1592C24.1931 20.7234 24.3517 20.2421 24.4109 19.7439C24.4701 19.2457 24.4286 18.7406 24.289 18.2587C24.1494 17.7768 23.9145 17.3278 23.5982 16.9384C23.2818 16.549 22.8906 16.227 22.4475 15.9916C22.3366 15.9086 22.21 15.849 22.0754 15.8163C21.9408 15.7837 21.801 15.7787 21.6644 15.8017C21.5279 15.8246 21.3973 15.875 21.2808 15.9499C21.1643 16.0247 21.0641 16.1224 20.9864 16.2371C20.0763 17.3329 20.2499 20.4825 21.2379 21.5424C22.2259 22.6023 23.3337 22.3807 23.9445 21.1592ZM24.6271 11.4168C25.7888 10.4467 26.8906 9.65032 27.8666 8.72219C28.0702 8.55257 28.2362 8.34244 28.3542 8.10518C28.4722 7.86792 28.5395 7.6087 28.5519 7.34402C28.5643 7.07933 28.5215 6.81496 28.4262 6.56771C28.3309 6.32047 28.1852 6.09575 27.9983 5.90785C27.2319 5.18331 26.166 5.30906 25.178 6.17132C23.3696 7.76412 23.2199 8.85392 24.6271 11.4168ZM18.2859 32.4045C21.0343 34.3327 23.9984 34.6141 25.8247 33.159C22.7828 30.165 22.4894 30.2788 18.5254 32.1471C18.4535 32.177 18.4176 32.2369 18.2859 32.4045ZM10.2441 30.662C9.41173 31.5722 8.1363 31.9135 7.84888 33.183C10.3159 34.4704 12.4476 34.2608 14.3458 32.5842C13.2141 31.4764 11.771 31.1351 10.2441 30.662ZM24.0882 30.0932L27.3456 32.7399L30.6091 30.1351C28.3217 29.0513 26.3936 29.171 24.0882 30.0932ZM21.22 10.0096C20.7468 10.5754 20.3316 11.1873 19.9805 11.8359C19.7748 12.2606 19.7325 12.7461 19.8617 13.2C19.9909 13.6538 20.2826 14.0443 20.6811 14.297C21.2799 14.6323 22.3337 14.297 22.9744 13.5425C23.169 13.31 23.3064 13.0352 23.3756 12.7401C23.675 11.3629 23.3098 10.8838 21.22 10.0096ZM10.3698 26.3627C11.0464 29.7698 11.753 30.4165 15.3398 31.1231C14.9035 30.0183 14.2335 29.0208 13.3756 28.1992C12.5178 27.3775 11.4924 26.751 10.3698 26.3627ZM4.07048 28.7219L3.84294 29.0812L6.56147 32.5602L8.99258 30.0812L4.07048 28.7219ZM4.31599 27.183V27.5962L9.75305 29.1411C9.26802 26.2549 9.08838 26.1471 6.65727 26.6202C5.8489 26.7878 5.11238 26.9974 4.31599 27.189V27.183ZM24.196 26.9615C21.8008 27.68 19.9685 28.6561 18.6092 30.4225C20.6451 29.7279 23.2679 30.0393 24.196 26.9675V26.9615ZM25.5133 28.1591L29.2498 28.0752C28.8079 27.5565 28.2369 27.1637 27.5944 26.9366C26.952 26.7095 26.2609 26.6561 25.5912 26.7819C25.5493 27.0932 25.5073 27.3387 25.4894 27.5782C25.4714 27.8178 25.5073 27.9315 25.5133 28.1531V28.1591Z" fill="white"/>
</svg>
