<svg width="120" height="120" viewBox="0 0 120 120" fill="none" xmlns="http://www.w3.org/2000/svg">
<mask id="mask0" mask-type="alpha" maskUnits="userSpaceOnUse" x="0" y="0" width="120" height="120">
<rect width="120" height="120" fill="#C4C4C4"/>
</mask>
<g mask="url(#mask0)">
<path d="M91.8638 93.0946C90.9743 89.8973 91.6189 86.9685 93.3786 85.7343C95.538 84.2188 97.678 84.5833 100.849 87.0133C103.537 84.7367 105.813 84.5065 107.85 86.2971C110.531 88.6567 110.982 91.5791 109.139 94.4951C112.903 98.1464 110.628 102.354 105.271 102.725C105.323 103.428 105.426 104.132 105.42 104.835C105.42 107.47 104.034 109.088 101.436 109.152C98.6965 109.216 96.073 108.647 94.0619 106.338C93.7399 106.514 93.4412 106.729 93.1723 106.978C90.0783 110.597 85.8047 111.671 81.3699 112.349C78.0852 112.871 74.7255 112.684 71.5206 111.799C64.0241 109.734 57.3397 106.268 52.4666 100.116C50.1658 97.2469 48.4118 93.9855 47.2906 90.492C47.1166 89.9356 46.8716 89.4049 46.7298 89.0532C46.0852 90.4088 45.4986 91.8093 44.8476 93.1842C44.7049 93.5213 44.489 93.823 44.2154 94.068C43.9417 94.3129 43.617 94.495 43.2643 94.6012C42.9117 94.7074 42.5397 94.7353 42.175 94.6826C41.8103 94.63 41.4617 94.4983 41.1541 94.2968C40.1572 93.6334 39.2846 92.8024 38.5758 91.8413C35.8466 87.8255 34.6533 82.9745 35.211 78.163C35.2704 77.3044 35.3824 76.4502 35.5462 75.6051C36.223 72.6699 38.3824 71.2439 41.0832 70.419C41.3926 70.3231 41.7278 70.2847 42.1597 70.1952C41.9405 68.1489 41.7149 66.1793 41.5151 64.2097C41.2379 61.428 40.8318 58.6463 40.7545 55.8582C40.5278 49.1813 41.5327 42.5195 43.7196 36.2009C44.1884 34.7964 45.0489 33.5525 46.2012 32.6134C47.7676 31.3345 49.031 31.3345 50.5264 32.6838C52.5086 34.3936 54.1241 36.4813 55.277 38.8227C57.2559 43.0176 58.3968 47.4684 59.5378 51.9255C60.7109 56.8582 61.2523 61.9179 61.1492 66.985C61.1492 67.2344 61.2008 67.4902 61.2395 67.8803C61.7809 67.7971 62.2257 67.7396 62.6705 67.6629C64.9265 67.2728 66.5831 68.1105 67.782 70.0161C68.797 71.7727 69.3656 73.748 69.4386 75.7714C69.6836 78.7577 69.6707 81.7696 69.6771 84.7687C69.6386 85.5691 69.4529 86.3558 69.1292 87.09C68.4846 88.8038 66.5896 89.488 64.7396 88.7015C63.1078 88.0567 61.7444 86.8822 60.8721 85.3698C60.1888 84.1612 59.4217 83.0038 58.4355 81.4179C58.2228 83.1125 58.6611 84.3083 58.8674 85.4977C59.7054 90.2682 61.5295 94.591 64.9845 98.1017C67.4154 100.617 70.4626 102.463 73.8283 103.46C77.572 104.578 81.5174 104.866 85.3857 104.305C87.021 104.05 88.5694 103.404 89.8978 102.425C88.4346 100.89 86.9198 99.3615 87.442 97.0594C87.9641 94.7573 89.4337 93.4208 91.8638 93.0946ZM48.2188 47.7689C46.285 47.3532 44.3513 46.8225 42.2886 47.3469C41.2959 56.9069 42.6173 66.1729 44.7187 75.6115L49.5724 75.2022C49.6756 73.9233 49.7271 72.9513 49.8561 71.9665C49.9173 71.437 50.0586 70.9196 50.275 70.4318C50.6876 69.5429 51.532 69.4662 52.3442 69.626C53.0274 69.7603 53.7816 70.2655 53.5109 70.9689C52.9823 72.2926 53.9298 72.8873 54.452 73.7954L57.1141 73.4309L59.5893 73.06C60.7109 65.316 59.2155 52.1173 56.5662 46.2022C55.4317 46.4708 54.2779 46.7777 53.1112 47.0143C51.9445 47.2509 50.7456 47.4236 49.566 47.6218L48.2188 47.7689ZM94.6291 94.0986L94.2488 94.5526C93.6042 94.4887 92.9596 94.3736 92.315 94.3608C91.638 94.3213 90.9644 94.4827 90.3801 94.8244C89.7958 95.166 89.3272 95.6725 89.0341 96.2792C88.6916 96.9009 88.5494 97.6117 88.6267 98.316C88.7039 99.0203 88.9968 99.6842 89.466 100.218C90.4071 101.497 91.4513 101.664 92.7856 100.858C93.1788 100.608 93.4882 100.218 93.9007 100.014C94.043 99.9528 94.1978 99.9263 94.3525 99.9363C94.5071 99.9463 94.6571 99.9926 94.7903 100.071C94.8891 100.192 94.9556 100.336 94.9838 100.489C95.0119 100.642 95.0008 100.8 94.9514 100.947C94.733 101.35 94.4076 101.687 94.0103 101.919C92.0765 102.962 90.1428 104.055 88.0994 104.918C86.8515 105.374 85.5531 105.678 84.2319 105.826C80.9578 106.27 77.6255 105.99 74.4729 105.008C67.5887 103.09 62.4642 99.0353 59.7569 92.4232C58.5773 89.552 58.0552 86.4122 57.2559 83.3875C57.0948 82.748 57.0239 82.1469 56.8369 81.1365C56.4244 81.6993 56.1214 81.9231 56.115 82.1533C56.115 82.7927 56.2761 83.4898 56.2246 84.1484C56.1682 85.4725 55.9913 86.7887 55.696 88.0812C55.2384 89.7758 53.8783 90.1786 52.4215 89.1491C51.9867 88.8902 51.6117 88.5435 51.3207 88.1315C51.0298 87.7194 50.8294 87.2513 50.7327 86.7575C50.5071 85.3251 50.1719 83.9118 49.8625 82.4155L47.3164 82.4858C47.3164 83.1253 47.2261 83.5601 47.2584 84.0077C47.5306 87.6031 48.5489 91.1039 50.2493 94.2904C52.3294 98.3517 55.314 101.89 58.977 104.637C61.7874 106.76 65.0296 108.026 68.2655 109.388C74.4729 111.997 80.6158 111.607 86.7845 109.574C88.1551 109.028 89.4418 108.294 90.6069 107.393C92.2905 106.161 93.6666 104.562 94.6291 102.719C94.8998 102.239 95.1577 101.683 95.8216 102.028C96.4855 102.373 96.4017 102.994 96.0085 103.55C95.7829 103.863 95.5251 104.189 95.3639 104.343C95.4671 106.587 96.8981 107.291 98.6836 107.617C99.2121 107.713 99.7342 107.854 100.269 107.918C103.163 108.269 104.988 105.833 103.847 103.134C103.647 102.661 103.37 102.22 103.022 101.548C103.499 101.422 103.983 101.322 104.472 101.248C105.271 101.178 106.09 101.248 106.876 101.107C107.515 101.013 108.115 100.741 108.605 100.324C109.096 99.9064 109.457 99.36 109.648 98.7476C109.794 98.3945 109.843 98.0093 109.79 97.6313C109.736 97.2534 109.583 96.8962 109.345 96.5964C109.107 96.2965 108.793 96.0648 108.435 95.9248C108.077 95.7848 107.688 95.7416 107.308 95.7996C106.876 95.7996 106.438 95.7996 106.019 95.7996C105.793 94.8979 106.264 94.591 106.805 94.2393C109.216 92.7046 109.719 90.6135 108.178 88.305C107.366 87.09 106.245 86.2395 104.64 86.3866C103.924 86.4172 103.241 86.6864 102.699 87.1506C102.157 87.6149 101.789 88.247 101.655 88.9445C101.472 89.4334 101.257 89.9098 101.011 90.3705C100.671 89.9105 100.361 89.43 100.082 88.9317C99.8954 88.5224 99.9212 87.9916 99.6762 87.6527C98.5611 86.0604 95.5509 85.632 94.0103 86.7958C92.3215 88.0748 92.0121 91.2338 93.4237 92.7493C93.8492 93.1714 94.2359 93.6382 94.642 94.0922L94.6291 94.0986ZM42.4175 71.8066C39.3751 71.8066 37.1641 73.4053 36.6162 76.1359C36.0702 78.6789 36.0415 81.3045 36.5318 83.8586C37.0222 86.4128 38.0217 88.8441 39.4718 91.01C40.0491 91.8209 40.7996 92.4956 41.6698 92.9859C42.6238 93.5486 43.4617 93.165 43.9452 92.1482C44.377 91.3205 44.7267 90.4532 44.9894 89.5584C45.5567 87.301 46.0272 84.9989 45.4729 82.6712C45.1699 81.3923 44.6929 80.1453 44.3384 78.8792C43.726 76.5067 43.0879 74.1407 42.4497 71.8066H42.4175ZM64.0241 87.0197C66.2801 88.2027 67.9754 87.4353 68.2397 85.4146C68.8727 81.2597 68.7175 77.024 67.782 72.9257C67.4805 71.9062 67.0005 70.9473 66.3639 70.0928C65.9315 69.5312 65.3264 69.1245 64.6403 68.9341C63.9542 68.7437 63.2243 68.7801 62.5609 69.0377C61.233 69.479 61.0719 70.4829 61.0268 71.6979C60.9559 73.821 60.756 75.944 60.5627 78.0926C60.4531 79.2565 59.8149 80.561 60.1695 81.5394C61.0139 83.8159 62.2128 86.0157 64.0563 87.0133L64.0241 87.0197ZM54.9741 41.3358C54.2006 38.4774 52.4409 36.22 50.3588 34.2249C48.7603 32.6838 47.5226 32.7285 46.1368 34.4807C44.3964 36.6869 43.971 39.3662 43.4037 41.9945C46.1303 42.6915 52.8276 42.2822 54.9741 41.3358ZM51.1066 71.1608C50.9382 72.805 50.8865 74.4589 50.9519 76.1103C51.1388 77.92 50.3459 79.8384 51.5191 81.5394C50.7456 83.1509 51.6673 84.6216 51.8994 86.15C52.0928 87.4289 52.8469 88.1004 54.4004 88.241C54.6389 87.1603 55.0837 86.1436 55.045 85.1396C54.929 80.2604 54.7614 75.3173 51.1323 71.1608H51.1066ZM55.7411 43.2542L42.8107 43.8553L42.6173 45.6714C47.6774 46.5667 52.5311 46.1446 56.1537 44.4692L55.7411 43.2542ZM59.5507 74.6779C57.8361 74.7226 56.3277 74.6779 54.9741 75.3173L55.8572 80.043C56.54 80.0449 57.2189 79.9391 57.8683 79.7297C58.4833 79.4357 58.9659 78.9251 59.2219 78.2973C59.4357 77.102 59.5521 75.8916 59.57 74.6779H59.5507ZM49.7271 81.015C49.7271 79.4931 49.7271 78.0798 49.7271 76.5387L45.215 77.1015L46.2399 81.0022L49.7271 81.015Z" fill="#55B191"/>
<path d="M25.1553 19.5107C25.762 19.9219 26.454 20.1928 27.1802 20.3035C27.9064 20.4141 28.6485 20.3617 29.3516 20.1502C32.336 19.2293 34.9788 21.1478 35.1206 24.4091C35.1481 25.3714 34.9822 26.3296 34.6325 27.2277C34.2828 28.1258 33.7563 28.9458 33.0837 29.6399C32.6063 30.2004 32.0823 30.7202 31.5174 31.1938C30.8761 31.7483 30.3973 32.4641 30.1315 33.2657C28.5458 37.2624 24.4656 39.8331 20.308 38.2152C18.1615 37.3711 16.0409 36.7317 13.7074 36.9363C13.2396 36.9078 12.7755 36.835 12.3216 36.7189C10.0462 36.4823 8.25423 34.6342 9.31136 31.5583C9.81764 29.9567 10.8946 28.5927 12.3409 27.7215C13.1308 27.24 13.7138 26.4863 13.9782 25.6049C14.9902 22.8551 16.679 20.5403 19.4765 19.2869C20.3846 18.921 21.3609 18.7517 22.3403 18.7903C23.3196 18.8289 24.2794 19.0745 25.1553 19.5107ZM29.5579 27.3123C28.9133 25.8287 28.3074 24.3515 27.5338 22.9766C27.1133 22.293 26.5258 21.7256 25.8257 21.3268C20.843 18.3916 16.4792 21.768 15.3318 26.1676C14.7839 28.2651 15.609 30.4457 16.8144 32.4984C21.2813 31.2898 25.6452 30.1131 29.5579 27.3123ZM14.0878 28.9621L13.6688 28.6232C13.0994 28.8074 12.5732 29.1032 12.1214 29.4932C11.6696 29.8832 11.3014 30.3593 11.0389 30.8933C9.42738 33.5791 10.4974 35.4975 13.643 35.4975C15.3189 35.4975 17.0077 35.4975 18.6772 35.3824C19.6048 35.2929 20.5157 35.0777 21.3845 34.7429C22.6737 34.2569 24.0015 33.6942 25.252 33.0867C27.5403 31.9804 29.8544 30.8997 31.6979 29.0708C32.397 28.4432 32.9418 27.6649 33.2905 26.7958C33.6391 25.9267 33.7823 24.9899 33.709 24.0573C33.7107 23.5171 33.5545 22.988 33.2593 22.5341C32.9642 22.0801 32.5427 21.7207 32.046 21.4995C31.4616 21.2193 30.8056 21.1207 30.1639 21.2166C29.5221 21.3124 28.9245 21.5982 28.4492 22.0366C28.9507 22.3476 29.4818 22.6089 30.0348 22.8168C32.2522 23.3539 32.8517 24.5178 31.9686 26.5833C31.324 28.1372 29.8479 28.8022 28.5523 29.5504C25.1563 31.439 21.4989 32.8222 17.6974 33.6558C16.5927 33.9251 15.4465 33.9837 14.3198 33.8285C12.386 33.5279 11.8446 32.1019 12.9597 30.4521C13.3142 29.9405 13.7074 29.4609 14.0749 28.9621H14.0878ZM20.3789 36.7061C24.2465 37.8252 27.2116 36.4823 28.2364 33.3425L20.3789 36.7061ZM14.3327 30.6567C13.7783 31.6095 13.4432 32.1914 14.4938 32.4728C14.71 32.4838 14.9268 32.4666 15.1384 32.4216L14.3327 30.6567Z" fill="#55B191"/>
<path d="M74.2085 79.2883C74.3826 77.2165 75.1819 75.6753 77.0512 75.3556C78.9205 75.0359 80.3579 76.1166 81.4086 77.7792L82.7429 77.5234C84.0772 77.2484 85.3921 76.9862 86.4879 78.1629C87.7771 79.5441 88.6989 81.0661 88.3766 83.0165C88.2217 83.8112 87.7889 84.5262 87.1544 85.0352C86.5198 85.5442 85.7245 85.8144 84.9087 85.7982C84.3092 85.7982 83.7098 85.7342 83.0329 85.6958C82.73 86.5208 82.485 87.3329 82.1434 88.1067C81.2732 90.0762 80.2096 90.6262 77.9536 90.364C76.1294 90.153 75.3752 89.424 74.924 87.4416L74.7307 86.5975C72.8678 85.9133 71.0887 85.082 71.1725 82.652C71.237 80.7911 71.9525 79.4034 74.2085 79.2883ZM80.4159 79.6784C80.2999 79.1093 80.2483 78.6681 80.1194 78.246C79.7842 77.1589 78.0503 76.27 77.0318 76.6409C76.7302 76.7477 76.4551 76.9172 76.2251 77.1382C75.995 77.3592 75.8153 77.6265 75.6981 77.9222C75.5808 78.2178 75.5287 78.5349 75.5453 78.8522C75.5619 79.1695 75.6468 79.4795 75.7942 79.7616C75.9942 80.1054 76.1708 80.4622 76.3228 80.8295C76.3441 80.9424 76.3343 81.0588 76.2945 81.1667C76.2548 81.2746 76.1864 81.3698 76.0968 81.4424C76.0071 81.515 75.8993 81.5623 75.7848 81.5794C75.6704 81.5964 75.5534 81.5826 75.4461 81.5393C75.1561 81.3986 74.9498 81.0789 74.6662 80.8998C74.5152 80.786 74.3408 80.7066 74.1553 80.6673C73.9698 80.628 73.7779 80.6298 73.5932 80.6726C73.4085 80.7153 73.2356 80.798 73.0869 80.9146C72.9381 81.0313 72.817 81.1791 72.7324 81.3474C72.5305 81.6955 72.4174 82.0873 72.4032 82.4887C72.3889 82.8901 72.4738 83.2888 72.6505 83.6502C72.8272 84.0115 73.0904 84.3245 73.417 84.5618C73.7436 84.7991 74.1238 84.9535 74.5244 85.0116C75.2604 84.9852 75.9943 84.9169 76.7224 84.807C77.1251 84.8366 77.523 84.9117 77.9085 85.0308L78.0116 85.472L76.1487 86.8085C76.0392 87.9148 76.3679 88.7781 77.5733 89.0786C78.1899 89.2565 78.8478 89.2332 79.4501 89.0122C80.0524 88.7911 80.5672 88.384 80.9187 87.8509C81.7631 86.6231 81.4086 85.3569 81.1056 83.8606L82.8267 84.1036C83.4137 84.2385 84.0109 84.3262 84.6122 84.3657C85.0149 84.3945 85.4186 84.3244 85.7875 84.1615C86.1564 83.9985 86.4791 83.7479 86.7271 83.4317C86.975 83.1156 87.1405 82.7436 87.209 82.3488C87.2775 81.954 87.2468 81.5486 87.1196 81.1684C87.0438 80.7379 86.8759 80.3285 86.6274 79.9676C86.3789 79.6068 86.0554 79.3029 85.6786 79.0764C85.3019 78.8499 84.8807 78.7059 84.4433 78.6542C84.0058 78.6025 83.5623 78.6443 83.1425 78.7768C82.2189 79.0315 81.3089 79.3324 80.4159 79.6784Z" fill="#55B191"/>
<path d="M64.5655 27.958C65.455 25.803 67.305 24.1212 69.5223 22.7527C70.8115 21.9854 72.2554 22.0685 73.6477 22.3307C74.6329 22.5343 75.5942 22.8386 76.5161 23.2387C79.5779 24.5177 81.17 27.6575 80.6737 31.5135C80.433 33.5856 79.5809 35.541 78.2243 37.1345C77.1607 38.3814 75.9553 39.3342 74.0989 39.3342C72.5712 39.2895 71.0113 39.686 69.503 39.5261C66.9247 39.2575 64.8555 37.9977 63.9918 35.4846C63.2615 33.5222 63.2615 31.3657 63.9918 29.4033C64.1465 29.0068 64.3012 28.6359 64.5655 27.958ZM65.4292 29.1347C65.4292 29.2114 65.2165 29.6399 65.0747 30.0875C63.6566 34.5958 66.2349 38.2983 70.9598 38.2663C73.5381 38.2663 76.2132 38.0553 77.8762 35.459C78.9654 33.8417 79.5526 31.943 79.565 29.998C79.565 24.588 74.4083 23.2707 70.7342 23.6928C70.3324 23.7517 69.9527 23.9124 69.6319 24.1596C67.8021 25.4091 66.3494 27.1289 65.4292 29.1347Z" fill="#55B191"/>
<path d="M24.5558 96.522C22.4093 93.9001 22.7703 91.144 25.4389 89.2C26.7732 88.228 28.1591 88.6053 29.4224 89.3151C30.126 89.7548 30.9677 89.9232 31.7881 89.7884C34.4889 89.4175 36.8288 91.5021 37.1962 94.2646C37.3702 95.582 36.2357 95.6843 35.5009 96.2918C35.791 96.765 36.0746 97.1998 36.3324 97.6538C36.977 98.7665 37.2348 99.9304 36.4098 101.037C36.034 101.605 35.4879 102.042 34.8484 102.287C34.209 102.531 33.5083 102.57 32.8452 102.399C31.6073 101.98 30.4065 101.46 29.2549 100.845C26.6765 101.9 25.3873 101.759 24.0982 100.205C23.1764 99.0223 23.2215 98.5939 24.5558 96.522ZM33.1611 95.7418C33.1997 94.9105 34.0248 95.1024 34.6307 94.9617C36.0295 94.5844 36.2422 94.0792 35.5783 92.7811C35.43 92.4869 35.3011 92.0841 35.0432 91.9498C34.249 91.4893 33.4003 91.1285 32.5165 90.8755C31.743 90.69 31.4013 91.3998 31.0404 91.9945C30.8792 92.2631 30.4667 92.391 30.1057 92.634C29.7705 91.8155 29.6738 90.9522 29.1904 90.5749C28.5268 90.1336 27.7461 89.8977 26.9472 89.8971C26.0448 89.8587 24.6654 91.6684 24.3689 92.9793C23.8919 95.2942 25.7676 95.3581 27.2244 95.6971C27.1406 95.9848 27.1471 96.1703 27.0633 96.2278C26.5863 96.5731 26.0448 96.8673 25.6 97.2382C25.0328 97.7178 24.5236 98.2933 24.8072 99.1566C25.0457 99.86 26.2124 100.557 26.9537 100.25C27.7025 99.866 28.3873 99.3699 28.9841 98.7793C29.2155 98.4976 29.3984 98.18 29.5256 97.8393C29.7705 97.9608 29.9381 97.9928 29.9897 98.0823C30.1489 98.3706 30.2764 98.675 30.37 98.9903C30.4671 99.4464 30.675 99.8721 30.9756 100.23C31.2761 100.589 31.6602 100.869 32.0947 101.047C32.5291 101.224 33.0006 101.294 33.4684 101.25C33.9362 101.206 34.386 101.049 34.779 100.794C35.8877 100.154 36.1713 99.374 35.4236 98.3317C34.7249 97.424 33.9715 96.5592 33.1675 95.7418H33.1611Z" fill="#55B191"/>
<path d="M41.0316 11.7602C41.9341 8.94014 44.2546 7.57807 46.7233 8.11522C48.8698 8.58204 50.3782 10.1999 51.3773 12.2142C53.0339 15.5523 50.1525 20.3035 46.2206 20.2396C44.8089 20.2396 43.4231 20.3163 42.2177 19.2996C40.2066 17.5986 39.6393 15.7441 40.4515 13.2502C40.6127 12.745 40.8383 12.259 41.0316 11.7602ZM42.121 12.3997H42.0307C41.7643 13.1497 41.5489 13.9167 41.3862 14.6954C41.1606 16.2877 42.5142 18.3659 44.0547 18.7177C47.0327 19.3955 49.2824 18.4683 50.4426 15.4116C50.6801 14.8558 50.7565 14.2452 50.6631 13.6487C50.5697 13.0522 50.3103 12.4934 49.914 12.0352C49.2403 11.2105 48.4398 10.4962 47.542 9.91853C45.7371 8.79306 43.8034 9.34301 42.7011 11.1271C42.4816 11.5391 42.2878 11.9641 42.121 12.3997Z" fill="#55B191"/>
<path d="M49.5723 47.6475C50.913 48.2869 52.2796 48.8241 53.5881 49.4955C55.6765 50.5634 57.1913 54.1125 56.6241 56.3699C55.2124 61.978 49.4756 62.8029 46.1689 60.8781C44.3125 59.7974 43.0039 58.1796 43.1586 55.8391C43.2228 54.8441 43.3803 53.8571 43.6292 52.8911C44.2738 50.4547 45.6468 48.5747 48.1993 47.7754L49.5723 47.6475ZM45.1891 52.1238C44.9699 53.0254 44.7314 53.9207 44.5445 54.8223C43.8032 58.2627 45.969 59.7463 48.3153 60.3218C49.4659 60.5564 50.6602 60.4581 51.7561 60.0387C52.852 59.6192 53.8034 58.8962 54.4969 57.9557C55.8183 56.0373 55.7088 54.2084 54.426 52.0151C53.7105 50.8001 52.6212 50.3524 51.4545 49.8345C48.4894 48.5427 46.5814 49.2206 45.1891 52.079V52.1238Z" fill="#55B191"/>
<path d="M49.134 58.4097C47.5869 57.6871 47.0262 56.7854 47.1228 55.321C47.2195 53.8566 48.3733 52.3283 49.7012 52.0725C49.9488 52.0373 50.2012 52.0575 50.4399 52.1316C50.6785 52.2057 50.8975 52.3319 51.0806 52.5009C51.681 53.299 52.1973 54.1561 52.6212 55.0588C53.2658 56.3378 53.1175 57.054 52.041 58.0771C51.0806 58.9852 50.5069 59.0491 49.134 58.4097ZM50.0879 53.6584C49.4434 53.4346 48.7988 53.9206 48.5152 54.8222C48.4252 55.0717 48.3874 55.3367 48.4041 55.6011C48.4208 55.8655 48.4917 56.1238 48.6123 56.3602C48.7329 56.5965 48.9009 56.806 49.1058 56.9759C49.3107 57.1458 49.5484 57.2724 49.8043 57.3481C50.1925 57.421 50.5941 57.3669 50.9486 57.194C51.3032 57.021 51.5915 56.7385 51.7703 56.3889C52.0217 55.6663 50.971 53.9781 50.0879 53.6584Z" fill="#55B191"/>
</g>
</svg>
