<svg width="197" height="124" viewBox="0 0 197 124" fill="none" xmlns="http://www.w3.org/2000/svg">
<mask id="mask0" mask-type="alpha" maskUnits="userSpaceOnUse" x="0" y="0" width="197" height="124">
<rect width="197" height="124" fill="#C4C4C4"/>
</mask>
<g mask="url(#mask0)">
<path d="M149.386 81.4396L137.345 84.9712C137.126 90.6931 138.154 96.211 138.962 102.065C137.226 102.349 135.631 103.492 133.688 102.831C133.48 101.559 134.279 101.65 134.957 101.565C135.635 101.48 136.266 101.351 137.179 101.143L135.653 85.5616C134.154 86.055 132.847 86.4061 131.612 86.9152C129.954 87.5978 129.74 87.4436 129.558 85.6585C128.876 79.8947 128.11 74.1774 127.392 68.439C127.277 68.0044 127.12 67.5819 126.924 67.1773L124.157 70.0523L121.803 68.2768L115.518 76.8198L118.131 80.8182C115.9 81.3859 116.132 79.1348 114.867 78.7806C113.487 78.6866 113.879 81.4034 111.808 80.835L112.461 78.6392C111.868 78.684 111.272 78.6656 110.682 78.5843C110.432 78.5274 110.173 78.067 110.115 77.7502C110.087 77.5785 110.42 77.2628 110.666 77.1311C110.951 77.0268 111.253 76.9773 111.557 76.9853C113.301 76.8368 114.481 75.7884 115.469 74.4843C116.8 72.7257 118.11 70.9575 119.389 69.1617C119.868 68.4958 120.217 67.7204 120.606 67.0628C119.867 66.1 118.764 65.3014 118.737 64.4635C118.711 63.6257 119.762 62.7485 120.34 61.8902C121.389 60.3214 122.498 58.7624 123.544 57.1745C123.855 56.6168 124.133 56.0415 124.378 55.4516C121.055 53.5801 117.687 51.8662 116.211 47.995C115.493 48.1127 114.914 48.2466 114.314 48.3709C113.805 48.5248 113.284 48.6384 112.757 48.7106C109.694 48.8597 108.046 47.1709 108.274 44.1763C108.297 43.496 108.454 42.827 108.736 42.2078C109.019 41.5886 109.421 41.0314 109.92 40.5686C110.419 40.1057 111.005 39.7463 111.644 39.511C112.282 39.2757 112.961 39.1693 113.641 39.1978C114.014 39.1643 114.384 39.1038 114.748 39.0167L115.48 34.0789C111.948 32.0458 105.234 32.1071 100.636 34.2047C99.5478 33.5015 99.8274 32.3786 99.8759 31.3588C100.009 28.8627 100.234 26.3712 100.444 23.6212C103.583 23.3378 106.747 23.6854 109.751 24.6435C112.714 25.5555 115.585 26.7436 118.508 27.8122C119.562 26.5323 120.685 25.3111 121.872 24.154C122.759 23.4312 123.774 22.8819 124.864 22.5347C126.147 22.0766 127.532 21.9217 128.847 21.5431C132.45 20.385 136.323 20.3666 139.937 21.4902C140.429 20.2672 140.889 19.095 141.372 17.9324C142.949 14.1293 144.585 10.3687 147.616 7.42453C149.063 6.01896 149.34 5.99328 150.785 7.32347C152.23 8.65367 153.798 10.0944 155.269 11.5443C156.28 12.5344 156.173 13.3157 154.906 13.7124C151.44 14.7955 149.586 17.6255 147.581 20.2909C146.782 21.3552 146.1 22.4918 145.352 23.6653L149.265 29.1809C149.893 28.8297 150.545 28.5223 151.216 28.2609C153.251 27.6079 156.098 28.8913 157.275 30.9378C158.269 32.6617 157.783 35.7509 156.058 36.9799C155.04 37.7014 153.692 37.9613 152.485 38.4005C152.089 38.5137 151.687 38.6013 151.281 38.6629C150.947 42.9218 150.083 46.9801 146.973 50.5119C150.082 52.314 153.454 53.5703 155.9 56.2315L153.859 58.9943C155.757 60.4592 157.584 61.8117 159.317 63.2253C161.399 64.8952 163.63 65.6462 166.307 64.8881C166.532 64.8495 166.763 64.8774 166.973 64.9684C167.091 65.0143 167.171 65.184 167.267 65.2923C166.663 66.3836 166.663 66.3836 163.874 66.7357C163.761 67.4789 165.555 67.9098 164.18 68.9248L162.154 67.9509L162.277 70.0982C161.538 70.5716 161.037 70.5034 160.78 69.6903C160.72 69.5502 160.695 69.3973 160.707 69.2453C161.286 66.4021 159.513 64.9036 157.465 63.5547C156.133 62.676 154.82 61.755 153.269 60.6967L151.219 64.3619L148.956 63.4985C149.693 65.1338 150.373 66.5307 150.993 67.9697C152.332 71.204 153.702 74.4266 154.931 77.7051C155.696 79.7472 155.486 79.9775 153.395 80.5678C152.771 80.7418 152.086 80.9453 151.426 81.1383L155.765 95.3581C157.748 95.0334 159.433 94.7575 161.125 94.5654C161.278 94.5404 161.49 94.9625 161.871 95.4159L154.89 97.9886C152.803 92.5789 152.779 86.5311 149.386 81.4396ZM153.561 56.138C151.347 54.3268 148.789 52.9844 146.04 52.1922C145.547 52.051 145.019 52.0888 144.55 52.2992C142.511 53.2857 140.522 54.4144 138.499 55.4963C138.476 55.6394 138.461 55.7836 138.453 55.9283C138.428 58.0084 137.896 58.9506 136.511 59.3798C135.238 59.7776 134.236 59.3606 133.198 57.6047C132.524 56.4811 131.79 55.9484 130.463 56.0939C129.549 56.1454 128.633 56.1052 127.728 55.9738C127.395 55.9042 127.048 55.9369 126.734 56.0675C126.42 56.1982 126.153 56.4207 125.967 56.7059C124.701 58.4997 123.382 60.2562 122.056 62.0074C120.548 63.9974 120.158 64.564 122.765 66.6569C123.312 67.004 123.891 67.2962 124.495 67.5293L127.379 64.0149C128.339 64.0929 128.46 64.752 128.544 65.4693C129.063 69.9541 129.576 74.4008 130.124 78.8678C130.372 80.8968 130.709 82.9175 131.027 85.0981L153.786 78.5258C152.502 75.3086 151.335 72.0919 149.938 68.9782C148.91 66.6917 147.557 64.5632 146.445 62.3167C146.297 62.0296 146.212 61.7143 146.195 61.3918C146.178 61.0693 146.23 60.7469 146.347 60.446C146.815 59.7165 147.581 60.2441 148.164 60.5794C148.935 61.0211 149.683 61.5189 150.599 62.0935L153.561 56.138ZM148.174 45.8435C149.599 42.9074 150 38.0174 149.294 34.66C149.22 34.1034 148.968 33.5858 148.573 33.1861C148.179 32.7863 147.665 32.5263 147.11 32.4454C141.651 31.002 136.262 29.4688 130.846 27.927C130.351 27.7347 129.81 27.6922 129.291 27.8051C128.772 27.9179 128.297 28.181 127.927 28.5616C126.954 29.5173 125.903 30.3944 124.9 31.3289C122.575 33.5115 120.33 35.7917 117.907 37.8596C117.361 38.306 116.947 38.8933 116.711 39.558C116.474 40.2228 116.424 40.9395 116.566 41.6306C116.74 43.5205 117.106 45.3877 117.661 47.2027C118.776 50.3431 121.291 52.2293 124.304 53.368C127.872 54.7424 131.616 54.4037 135.276 53.9937C137.363 53.6979 139.393 53.0948 141.303 52.2041C144.264 50.9462 146.696 48.6971 148.18 45.8424L148.174 45.8435ZM147.721 30.5566C146.522 27.2211 144.832 24.436 141.314 23.3212C140.149 22.9727 138.964 22.698 137.765 22.4986C135.969 22.1397 134.193 21.8953 132.359 22.4175C130.18 23.0831 127.963 23.6162 125.72 24.0136C124.858 24.1579 124.034 24.4773 123.3 24.9523C122.566 25.4273 121.937 26.0477 121.452 26.7753C120.273 28.2545 119.22 29.831 118.307 31.4879C117.593 32.9104 116.757 34.3855 117.006 36.3817L129.159 25.3633C135.247 28.2119 141.601 28.7448 147.721 30.5566ZM101.799 25.2011L101.156 31.3646L113.288 30.8994L114.203 27.6357C110.296 25.9269 106.062 25.0959 101.799 25.2011ZM153.7 12.4083C153.451 11.972 153.165 11.5579 152.845 11.1709C152.189 10.5453 151.502 9.95398 150.785 9.3994C149.395 8.32144 148.54 8.2459 147.557 9.62103C145.65 12.3227 143.685 15.0338 142.93 18.4802L145.763 20.3927C148.043 17.2515 150.227 14.2434 153.708 12.42L153.7 12.4083ZM149.788 31.2171C150.718 31.3585 151.298 31.394 151.85 31.5323C152.18 31.5967 152.486 31.752 152.733 31.9806C152.98 32.2092 153.158 32.5021 153.248 32.8264C153.337 33.1507 153.335 33.4936 153.241 33.8166C153.146 34.1396 152.964 34.4299 152.714 34.655C152.359 34.9344 151.976 35.1764 151.572 35.3772C150.888 35.8286 151.038 36.3459 151.538 36.9627C152.387 36.7649 153.282 36.6118 154.14 36.3474C154.617 36.1803 155.051 35.9081 155.409 35.551C155.767 35.1939 156.04 34.7609 156.208 34.284C156.376 33.8072 156.435 33.2986 156.38 32.7959C156.326 32.2932 156.159 31.8092 155.892 31.3797C154.498 29.3231 152.054 29.1095 149.788 31.2171ZM115.619 46.2902C114.424 45.3368 112.447 46.8552 111.67 44.5408C111.901 42.8056 113.538 42.2765 115.155 41.5418C114.808 41.1807 114.652 40.8668 114.426 40.7994C112.285 40.1641 110.357 41.5047 109.839 43.8874C109.322 46.27 110.251 46.6794 112.228 47.0346C112.679 47.0482 113.128 46.9747 113.551 46.8181C114.25 46.6644 114.937 46.4736 115.619 46.2902ZM117.756 29.5216L115.571 28.5738L114.545 31.601L116.383 31.9007L117.756 29.5216ZM136.988 55.5545L134.047 56.1731C134.583 57.2539 135.208 58.0002 136.342 57.6317C137.148 57.3692 137.419 56.6721 136.988 55.5545ZM144.099 22.5126C144.225 21.1276 143.274 20.1409 142.215 20.4514L141.883 21.8114L144.099 22.5126Z" fill="#2E8C6D"/>
<path d="M128.076 44.2247C128.149 44.5649 128.206 44.9087 128.244 45.2547C128.304 45.617 128.248 45.9918 128.249 46.5595C130.361 47.1779 132.609 47.1508 134.706 46.4817C135.217 46.3317 135.714 46.1368 136.19 45.8992C139.613 44.2747 139.098 45.1555 141.431 41.4245C142.717 41.7427 143.267 42.7103 143.845 44.2085C142.16 43.5639 141.423 44.6051 140.428 45.3489C136.527 48.2726 132.196 49.4517 127.367 48.0684C125.991 47.6408 125.738 46.9707 126.533 45.7698L127.605 44.1386L128.076 44.2247Z" fill="#2E8C6D"/>
<path d="M140.586 35.8242C139.288 36.4676 138.359 36.8939 137.714 35.9875C137.596 35.701 137.546 35.3905 137.571 35.0813C137.595 34.7721 137.692 34.473 137.854 34.2086C138.163 33.7466 138.905 33.5729 139.466 33.2917L140.586 35.8242Z" fill="#2E8C6D"/>
<path d="M126.055 36.1472C126.724 36.488 126.939 37.5626 126.451 38.5695C126.395 38.7486 126.297 38.9115 126.165 39.0446C126.032 39.1777 125.87 39.2771 125.691 39.3345C125.513 39.3919 125.323 39.4056 125.138 39.3744C124.953 39.3432 124.778 39.2681 124.628 39.1553C124.263 38.9492 123.992 38.6094 123.873 38.2076C123.753 37.8057 123.795 37.3732 123.988 37.0013C124.065 36.8076 124.18 36.6313 124.327 36.483C124.473 36.3346 124.648 36.2171 124.841 36.1375C125.034 36.0579 125.24 36.0177 125.449 36.0194C125.657 36.021 125.863 36.0645 126.055 36.1472Z" fill="#2E8C6D"/>
<path d="M37.3078 91.5635L40.0716 88.0688C38.4805 88.1596 37.4775 88.1737 36.4911 88.2895C35.76 88.37 35.0301 88.4177 34.9744 87.5585C34.9186 86.6994 35.7089 86.6222 36.4016 86.6263C36.9629 86.5949 37.5256 86.5965 38.0867 86.6312C40.2318 86.8936 41.9014 86.0066 43.2827 84.4748L49.2482 78.047L48.1173 76.1236C51.5323 73.0576 54.9962 70.2905 58.3394 66.7858C54.5367 65.4499 52.0812 63.0121 50.0174 60.2556C44.9915 61.4571 41.9636 60.2685 41.0479 56.7887C40.1625 53.4541 42.5248 50.3385 46.8919 49.1796C47.3358 47.2659 47.7376 45.2939 48.2484 43.3497C50.3195 35.4248 55.014 30.1256 63.226 28.1283C67.8961 26.8942 72.8388 27.1901 77.3283 28.9726C82.8305 31.1989 85.3753 34.2618 87.3996 40.0866C89.6667 39.8982 92.1701 39.6777 93.6973 41.9084C94.4367 42.995 95.1273 44.4618 95.0432 45.7029C94.7153 50.359 93.7116 51.6854 87.6806 52.1309C86.4487 56.2496 85.2873 60.5199 81.822 63.7573C82.5619 64.289 83.0554 64.6717 83.5765 65.0238C85.9487 66.5939 88.3464 68.1598 90.6932 69.7341C92.2683 70.7819 92.254 70.9736 90.7978 72.4066C90.6299 72.5777 90.4927 72.7765 90.1961 73.158C90.9777 73.944 91.7623 74.7491 92.5407 75.516C93.0161 75.9503 93.5183 76.3543 94.0444 76.7256C99.9634 80.9792 98.3843 80.5849 104.851 79.1736C105.101 79.1742 105.349 79.2176 105.584 79.3017C105.737 81.7509 103.378 80.9032 102.198 81.8668C102.707 82.1881 103.198 82.3558 103.429 82.6901C103.55 82.8679 103.627 83.0714 103.656 83.2844C103.684 83.4975 103.662 83.7141 103.591 83.9171C103.427 84.0582 103.23 84.1557 103.018 84.2007C102.807 84.2456 102.587 84.2365 102.38 84.1742C101.523 83.7005 100.704 83.1624 99.9292 82.5646C100.194 83.4698 100.395 84.3923 100.531 85.3254C100.556 85.7131 100.205 86.1231 100.023 86.525C99.6062 86.2538 98.8063 85.9539 98.8281 85.7283C99.1547 81.9015 96.2093 80.4187 93.8072 78.5467L89.2535 75.0162C88.822 75.8898 88.4652 76.5815 88.1306 77.2891C87.5253 78.5763 87.0981 78.7181 85.9243 78.0485C85.0796 77.5144 84.1743 77.0489 83.0218 76.3889C82.8203 78.6677 83.5475 80.3178 83.8921 82.024C84.2138 83.5903 84.9965 85.0616 84.4885 86.7834C84.3334 87.3115 84.7285 88.0498 84.9661 88.6637C85.8598 90.9328 86.8161 93.1852 87.7099 95.4543C87.9917 96.1785 88.1621 96.9405 88.4139 97.8002L81.5784 99.9116L83.9598 110.47C86.1844 111.816 87.8792 109.528 89.8559 110.157C89.9669 111.712 88.8456 111.961 87.8703 112.265C86.9263 112.505 85.9705 112.696 85.0069 112.838C83.4469 113.158 82.9169 112.912 82.5167 111.385C82.1165 109.858 81.9101 108.357 81.5776 106.845C81.1238 104.791 80.6329 102.75 80.0826 100.385L74.9765 101.495L73.2699 96.0558L72.7613 96.1391L71.5795 101.96C70.4703 102.044 69.3569 102.141 68.2393 102.213C66.4246 102.334 66.0258 102.53 65.9803 104.365C65.8837 107.763 64.7451 111.096 65.5772 114.543C65.6313 114.874 65.2288 115.645 64.9671 115.681C63.204 115.918 61.4254 116.02 59.6521 116.114C59.5059 116.138 59.3321 115.794 59.1029 115.551C60.1018 113.677 62.2714 115.365 63.623 113.851C64.1358 110.087 64.4306 106.296 64.506 102.498L60.1117 103.57C59.1513 103.126 58.9194 102.388 58.9438 101.261C59.0258 97.7742 58.7848 94.2688 58.9822 90.8091C59.0663 89.209 59.4839 87.613 59.3276 85.9804C59.1023 83.6475 58.8644 81.3167 58.5875 78.5092C57.4962 79.3798 56.6671 80.0574 55.8285 80.717C53.6906 82.3726 53.519 82.3615 51.9822 80.152C51.6818 79.8186 51.346 79.519 50.9807 79.2584C50.4781 79.4792 50.0022 79.7564 49.5622 80.0847C47.485 82.0307 45.4542 84.0214 43.3874 85.9918C42.9692 86.3163 42.6749 86.7744 42.5537 87.2897C42.4326 87.805 42.4918 88.3463 42.7216 88.8231C43.1011 89.993 43.4033 91.1866 43.6264 92.3961C42.5817 92.1559 42.4224 91.9404 41.1164 89.0272L39.3451 91.367C38.8731 91.9927 38.8731 91.9927 37.3078 91.5635ZM84.4147 36.8476C83.1608 37.1639 82.1739 37.4364 81.165 37.6538C79.5827 37.9977 78.0246 38.4095 76.4003 38.6167C71.6294 39.2987 66.7648 38.8472 62.201 37.2986C61.7626 37.0952 61.267 37.0511 60.7997 37.1741C60.3323 37.2971 59.9226 37.5794 59.6412 37.9723C56.7198 41.2554 53.4086 44.1695 49.781 46.6502C49.2695 46.9858 48.8903 47.4886 48.7083 48.0727C47.2312 54.5621 51.6716 62.5439 57.9529 64.9037C62.6655 66.7868 67.8278 67.2425 72.7974 66.2141C74.7262 65.7938 76.7245 65.5189 78.4304 64.1755C84.3698 59.5016 86.6288 53.2824 86.3183 45.9628C86.2276 44.1746 85.9997 42.3961 85.6366 40.6429C85.3067 39.3476 84.8975 38.0737 84.4115 36.8285L84.4147 36.8476ZM80.621 65.1943C79.4421 65.9449 78.2081 66.6052 76.9295 67.1696C76.4714 67.3069 76.0569 67.561 75.7267 67.9069C75.3965 68.2528 75.1619 68.6787 75.046 69.1427C74.9081 69.6116 74.7245 70.0659 74.4977 70.4989C73.239 72.8593 70.5052 74.025 68.4229 72.9101C67.634 72.4778 67.0827 71.5823 66.479 70.8456C65.8752 70.1088 65.5132 68.9342 64.7315 68.5856C63.3333 67.9329 61.812 67.5855 60.2691 67.5666C59.5785 67.5753 58.9014 68.7829 58.2058 69.4386C57.9679 69.6603 57.6899 69.8364 57.452 70.0581L50.5359 76.3021L53.7546 80.012L59.5483 75.5251C59.8865 75.8324 60.1417 76.2201 60.2901 76.6523C60.4385 77.0845 60.4752 77.5472 60.3969 77.9975C59.8803 81.6204 60.7291 85.1699 61.1244 88.7806L82.962 84.6766L80.3709 73.7547L86.6966 76.1464C87.3635 74.7968 87.9018 73.6185 88.513 72.4869C88.6676 72.2706 88.7733 72.0233 88.8226 71.762C88.8719 71.5007 88.8637 71.2318 88.7985 70.9741C88.7333 70.7163 88.6127 70.4758 88.4451 70.2694C88.2775 70.063 88.0669 69.8956 87.8281 69.7788C85.4061 68.1842 82.9353 66.6499 80.621 65.1943ZM70.0988 100.133C70.9891 97.7529 71.5369 95.2586 71.7257 92.7246C71.7565 92.3148 72.3591 91.9681 72.6897 91.5549C73.0421 91.8268 73.3625 92.1379 73.6445 92.4822C73.8037 92.8561 73.9223 93.246 73.9981 93.6451C74.6358 95.4666 75.2851 97.2796 75.9533 99.1679C79.5531 98.6854 83.076 97.7423 86.4353 96.3615L82.6714 87.0091C76.7259 87.1795 63.2883 89.8364 60.4357 91.4329L60.566 101.4L70.0988 100.133ZM59.7393 34.7835C67.4198 37.1558 75.0235 38.581 82.7288 34.8844C78.3265 28.8092 69.3966 27.7774 60.8265 30.5384C54.9672 32.4312 49.8127 39.3072 50.0678 44.1747C53.8481 41.5059 57.2792 38.7376 59.7393 34.7835ZM87.4861 49.4274C89.3093 50.3954 91.2945 50.2793 92.1928 49.4663C94.3145 47.5522 93.8656 43.0559 91.3089 41.9142C90.4023 41.6241 89.4198 41.6848 88.5557 42.0843C88.0987 42.2831 88.0099 43.3357 87.7313 44.0667C89.4081 44.3798 91.0629 44.2394 91.3204 46.0513C91.6218 48.4109 89.7785 48.915 87.4861 49.4274ZM48.5397 58.4868C46.9686 58.2218 45.1929 58.4211 44.7849 56.6861C44.3768 54.9511 45.9205 54.3719 47.1661 53.6458C46.8563 52.7107 47.5519 51.3369 46.2518 51.1319C45.5086 51.0185 44.6059 51.8845 43.7922 52.3376C43.586 52.4691 43.4098 52.6425 43.2749 52.8466C42.7498 53.6205 42.4889 54.5434 42.5313 55.4777C42.5736 56.412 42.917 57.3075 43.51 58.0307C44.6617 59.3633 46.4245 59.6034 48.5397 58.4868ZM73.5103 68.0166L67.1459 68.7387C67.9285 70.2492 68.4263 71.7345 70.2885 71.6646C71.6909 71.6178 72.8543 70.3502 73.5103 68.0166ZM48.0105 56.4909C47.7766 56.0592 47.6265 55.5811 47.5111 55.5935C47.1633 55.6538 46.8352 55.7971 46.5545 56.0112C46.4973 56.0206 46.643 56.5516 46.7224 56.5582C47.1529 56.5717 47.5838 56.5492 48.0105 56.4909ZM89.8661 46.8182L89.4952 46.1477L88.1437 46.9043L88.4143 47.441L89.8661 46.8182Z" fill="#2E8C6D"/>
<path d="M58.7196 57.545C58.4073 55.6377 59.9964 55.136 61.4103 54.0428L61.0091 56.1779C66.6879 59.6417 71.7345 57.8885 75.6293 55.1618C77.0939 54.1386 77.9844 52.759 77.2913 50.6789C77.9609 50.7827 78.5933 51.0547 79.1292 51.4693C79.6652 51.8838 80.0873 52.4276 80.356 53.0496C77.5426 56.1215 74.5939 58.726 70.3728 59.5803C66.1518 60.4345 62.598 58.7053 58.7196 57.545Z" fill="#2E8C6D"/>
<path d="M76.3845 44.462C75.9464 45.4542 74.1385 46.1745 73.4465 45.9353C73.0329 45.766 72.7017 45.4419 72.5236 45.0321C72.3456 44.6222 72.3346 44.159 72.4932 43.7412C72.6035 43.5016 72.763 43.2879 72.9613 43.114C73.1596 42.94 73.3923 42.8098 73.6442 42.7316C73.8961 42.6534 74.1617 42.6291 74.4236 42.6602C74.6855 42.6913 74.938 42.7771 75.1646 42.9121C75.6568 43.3553 76.0694 43.8795 76.3845 44.462Z" fill="#2E8C6D"/>
<path d="M62.5799 48.1063C61.8161 48.1033 61.0554 48.0086 60.3142 47.8244C60.114 47.7257 59.9369 47.5859 59.7943 47.4143C59.6517 47.2427 59.5468 47.0429 59.4864 46.8281C59.426 46.6133 59.4114 46.3882 59.4437 46.1674C59.4759 45.9466 59.5542 45.735 59.6736 45.5464C60.1091 44.7374 61.4952 44.1123 62.1189 44.5324C62.278 44.6441 62.4132 44.7865 62.5164 44.9513C62.6196 45.116 62.6888 45.2997 62.7198 45.4916C62.728 46.3653 62.6813 47.2385 62.5799 48.1063Z" fill="#2E8C6D"/>
</g>
</svg>
